<?xml version="1.0" encoding="UTF-8"?>
<!-- Created with Inkscape (http://www.inkscape.org/) -->
<svg width="91.749mm" height="76.811mm" version="1.1" viewBox="0 0 91.749 76.811" xmlns="http://www.w3.org/2000/svg" xmlns:cc="http://creativecommons.org/ns#" xmlns:dc="http://purl.org/dc/elements/1.1/" xmlns:rdf="http://www.w3.org/1999/02/22-rdf-syntax-ns#">
 <metadata>
  <rdf:RDF>
   <cc:Work rdf:about="">
    <dc:format>image/svg+xml</dc:format>
    <dc:type rdf:resource="http://purl.org/dc/dcmitype/StillImage"/>
    <dc:title/>
   </cc:Work>
  </rdf:RDF>
 </metadata>
 <g transform="translate(-18.587 -82.377)" fill="#513da6" stroke-width=".26458">
  <path d="m18.587 159.19c0.23765-3.0709 0.3801-6.1502 0.59278-9.224 0.34635-4.6352 1.0081-9.2365 1.706-13.829 0.75293-4.5384 1.226-9.1276 2.1931-13.629 0.2283-1.0628 0.50014-2.1157 0.75021-3.1736 1.4803-5.34 3.1585-10.665 5.4346-15.728 0.4149-0.92287 0.88246-1.8212 1.3237-2.7317 1.6487-3.1652 3.8589-5.9766 6.6917-8.1643 2.954-2.2812 9.7383-5.8027 11.251-6.6648 3.3671-1.5722 6.9375-2.6221 10.499-3.645l-6.1852 4.7713c-3.5847 1.0893-7.1868 2.1871-10.541 3.8878 1.52-0.91044 3.0142-1.8653 4.5599-2.7313 0.74383-0.41672-1.4603 0.88404-2.1521 1.3824-2.9272 2.1086-5.2792 4.8539-7.0711 7.9746-0.4711 0.90739-0.97159 1.8001-1.4133 2.7222-2.3868 4.9823-4.0973 10.275-5.5057 15.606-0.21943 1.0308-0.46021 2.0573-0.6583 3.0925-0.85294 4.4572-1.2587 8.9843-1.931 13.469-0.60815 4.5411-1.3104 9.0808-1.5332 13.662-0.10798 2.9283-0.17178 5.8737 0.16002 8.7908l-8.1712 4.1634z"/>
  <path d="m56.618 88.683c-0.45964 2.0615-0.7422 4.1595-1.0787 6.2444-0.40184 2.4258-0.83778 4.8458-1.101 7.2913-0.19383 2.5142-0.62638 4.9922-1.0713 7.4705-0.36224 2.5586-0.89081 5.0881-1.3739 7.6254-0.41837 2.3693-0.89528 4.7257-1.2831 7.1004-0.32762 1.8689-0.49885 3.7571-0.5753 5.6513-0.01998 1.5938-0.05242 3.1916 0.01169 4.7845 0.11547 1.764 0.77666 3.3827 1.6325 4.9063 0.95733 1.7472 2.456 3.095 3.9653 4.3585 1.0802 0.95152 2.2645 1.7839 3.3567 2.7193 0.52909 0.45313 1.0225 0.94649 1.5422 1.4103 1.0629 0.99589 2.134 1.9911 3.2963 2.8707l-7.675 4.7992c-1.071-0.97983-2.1095-1.9949-3.1627-2.9937-1.5751-1.4292-3.187-2.8056-4.8705-4.1082-1.5999-1.3307-3.1365-2.7966-4.1864-4.6136-0.87852-1.6406-1.7087-3.3334-1.9016-5.2118-0.12376-1.631-0.02684-3.2636 0.01344-4.8969 0.07859-1.9496 0.20424-3.8993 0.62622-5.8107 0.4571-2.3858 0.89591-4.7742 1.3664-7.1577 0.5061-2.5273 0.98565-5.0614 1.3742-7.6098 0.4357-2.4556 0.86445-4.9089 1.0712-7.3975 0.238-2.4632 0.65421-4.8957 1.084-7.332 0.28884-1.9949 0.58937-3.9888 0.67832-6.0056l8.2609-4.0946z"/>
  <path d="m29.047 119.28c2.7668 7.9e-4 5.5337 2e-3 8.3006 0.0117 4.7757 0.0454 9.5516 0.0414 14.327 0.026 2.0857-3e-3 4.1706-0.056 6.2555-0.10788l-6.8444 4.9725c-1.9851-0.054-3.9703-0.10858-5.9563-0.10883-4.8352-0.012-9.6713-0.016-14.505 0.11603-2.9953 0.086-6.0106 0.1232-8.9763 0.59216l7.3987-5.5016z"/>
  <path d="m60.3 151.86c1.1535-2.0288 2.1065-4.165 2.9209-6.35 0.76426-2.0556 1.3619-4.1655 2.0322-6.2522 0.63908-1.9744 0.93425-4.03 1.2618-6.0716 0.36208-2.096 0.66201-4.1964 0.8294-6.3171 0.11654-2.1445 0.12512-4.2913 0.23849-6.4362 0.08945-2.274 0.35409-4.5331 0.61533-6.792 0.30681-2.5292 0.40021-5.0736 0.44147-7.6185 0.02514-2.3001 0.02064-4.6003-0.01979-6.9002-0.04391-1.6846-0.04263-3.37-0.08042-5.0547-0.03135-1.0258-0.0637-2.0516-0.07986-3.0777l8.211-4.1838c-0.01622 1.0528-0.04832 2.1053-0.07829 3.1578-0.03555 1.7105-0.0312 3.4217-0.07146 5.1322-0.03788 2.3244-0.03717 4.649-0.08366 6.9733-0.0623 2.5626-0.12076 5.1305-0.39024 7.6814-0.23823 2.2317-0.44435 4.4652-0.54091 6.7083-0.15967 2.1506-0.15632 4.3043-0.26681 6.4578-0.1352 2.1349-0.38708 4.2527-0.73922 6.3628-0.34742 2.0772-0.66488 4.1666-1.2268 6.1994-0.67518 2.124-1.3418 4.2521-2.1301 6.3375-0.75754 2.1214-1.6973 4.1591-2.4918 6.2651l-8.3513 3.7784z"/>
  <path d="m77.047 85.435c2.1273-0.66246 4.295-1.1906 6.4778-1.6347 2.2735-0.54526 4.5516-0.99759 6.8806-1.2115 1.8729-0.15954 3.7527-0.19541 5.6313-0.21207 1.6828 0.13572 3.343 0.47302 5.0037 0.76771 1.4803 0.18608 2.7906 0.75703 4.1611 1.2847 1.1583 0.50637 2.328 0.98028 3.4101 1.6392 0.88471 0.56635 1.3578 1.3902 1.6014 2.385 0.14626 0.81569 0.16726 1.6451 0.0369 2.4625-0.15219 1.0819-0.68092 1.9978-1.287 2.8817-0.82621 1.1174-1.799 2.1183-2.8274 3.0494-1.3772 1.2346-2.9968 2.1491-4.5871 3.0755-4.6142 3.1319-9.4527 5.3869-14.572 7.3747-2.4084 0.99323-4.9258 1.6648-7.4208 2.3966-2.0156 0.406-3.9194 1.1796-5.9076 1.6809-1.0439 0.1948-2.0564 0.51247-3.075 0.80537l7.172-5.513c0.99259-0.26432 1.9897-0.50697 2.9921-0.73109 1.9179-0.54197 3.8119-1.1607 5.7603-1.5928 2.4628-0.71279 4.9326-1.4128 7.3016-2.4061 1.2436-0.49927 2.4841-1.0046 3.7063-1.5548 2.8233-1.2708 8.0465-4.1371-4.1691 2.694 1.1147-0.64219 2.1996-1.3114 3.2768-2.0115 0.19582-0.12726 0.4135-0.22085 0.60112-0.35991 0.18483-0.13698 0.34052-0.30944 0.51078-0.46415 1.0677-0.81262 2.0138-1.7769 2.8628-2.8147 0.57563-0.75959 1.1519-1.5158 1.3939-2.4552 0.10652-0.71995 0.20032-1.4271 0.0871-2.1585-0.11858-0.77298-0.4237-1.3632-1.1186-1.7809-1.0503-0.60375-2.1704-1.0746-3.2852-1.545-1.2923-0.51345-2.5899-0.9848-3.975-1.193-1.6298-0.27943-3.2651-0.62322-4.9249-0.62722-1.8187 4e-3 -3.6404 0.01531-5.4525 0.1889-2.2808 0.26438-4.5215 0.73387-6.7604 1.2381-2.2796 0.50686-4.5587 1.0705-6.7179 1.9768l7.2128-5.6349z"/>
  <path d="m80.482 106.89c1.3085 0.0801 2.6212 0.0521 3.9312 0.0318 1.1006-0.10271 2.0692 0.27824 3.0651 0.67098 1.0328 0.49127 2.0705 0.98377 3.0452 1.5839 0.86131 0.5378 1.6596 1.1569 2.4354 1.8112 0.79717 0.48333 1.3725 1.1959 1.9383 1.9178 0.52071 0.66948 1.0882 1.2899 1.4559 2.0598 0.36397 0.56967 0.52538 1.2248 0.72415 1.8622 0.23352 0.94489 0.31508 1.9221 0.31767 2.8932-0.03545 0.979-0.26931 1.9308-0.56733 2.8591-0.26488 1.0578-0.65931 2.0746-0.9888 3.1123-0.34686 0.99215-0.66239 1.9893-0.9005 3.0132-0.25917 1.0149-0.56988 2.0095-0.73428 3.0458-0.15602 1.0145-0.1684 2.0425-0.16616 3.0665 0.02601 0.91853-0.05764 1.8375 0.10035 2.746 0.28194 1.0665 0.96889 1.9018 1.7006 2.6948 0.94281 0.92715 1.8868 1.8439 2.9231 2.6675 0.8926 0.75303 1.9392 1.2709 2.946 1.8462 0.97319 0.45503 1.9601 0.87997 2.9297 1.3407 0.86804 0.45306 1.7929 0.67273 2.5504 1.3154 0.0955 0.11706 0.19101 0.23412 0.28651 0.35117l-7.9278 4.7609c-0.05845-0.0673-0.11691-0.13465-0.17537-0.20197-0.72029-0.52619-1.6242-0.72264-2.3985-1.1588-0.98114-0.46283-1.9348-0.98045-2.9256-1.4224-1.046-0.58429-2.0512-1.2256-2.9612-2.0118-1.0645-0.8635-2.0418-1.82-3.0303-2.7682-0.82552-0.9208-1.6241-1.8766-1.989-3.0835-0.23934-0.96275-0.25527-1.9276-0.2094-2.9168 0.0205-1.0634 0.02698-2.1286 0.1236-3.1885 0.1502-1.0648 0.3792-2.1031 0.69992-3.1298 0.2822-1.0309 0.46784-2.0875 0.88168-3.0825 0.59221-1.6617-0.23131 0.69168 0.32814-1.0552 0.21584-0.67398 0.55878-1.3067 0.65611-2.0183 0.23998-0.87999 0.56898-1.7372 0.63939-2.6577 0.11029-0.85535-0.01109-1.7312-0.21923-2.565-0.19528-0.60083-0.36387-1.2129-0.67267-1.7684-0.29492-0.70998-0.82712-1.2844-1.2987-1.8822-0.53982-0.65841-1.0913-1.294-1.8045-1.7758-0.75626-0.60314-1.5288-1.1889-2.3447-1.7095-0.95516-0.5568-1.9429-1.0635-2.9879-1.4312-0.90733-0.33878-1.8472-0.47947-2.8181-0.43442-1.3393-0.0217-2.6806-0.0445-4.0186 0.0318l7.4603-5.4202z"/>
 </g>
</svg>
