<?xml version="1.0" encoding="UTF-8" standalone="no"?>
<!-- Created with Inkscape (http://www.inkscape.org/) -->

<svg
   xmlns:dc="http://purl.org/dc/elements/1.1/"
   xmlns:cc="http://creativecommons.org/ns#"
   xmlns:rdf="http://www.w3.org/1999/02/22-rdf-syntax-ns#"
   xmlns:svg="http://www.w3.org/2000/svg"
   xmlns="http://www.w3.org/2000/svg"
   xmlns:sodipodi="http://sodipodi.sourceforge.net/DTD/sodipodi-0.dtd"
   xmlns:inkscape="http://www.inkscape.org/namespaces/inkscape"
   width="210mm"
   height="297mm"
   viewBox="0 0 210 297"
   version="1.1"
   id="svg3715"
   inkscape:version="0.92.2 (5c3e80d, 2017-08-06)"
   sodipodi:docname="logoAR2.svg">
  <defs
     id="defs3709" />
  <sodipodi:namedview
     id="base"
     pagecolor="#ffffff"
     bordercolor="#666666"
     borderopacity="1.0"
     inkscape:pageopacity="0.0"
     inkscape:pageshadow="2"
     inkscape:zoom="0.7"
     inkscape:cx="315.9798"
     inkscape:cy="605.45351"
     inkscape:document-units="mm"
     inkscape:current-layer="layer1"
     showgrid="false"
     inkscape:window-width="1920"
     inkscape:window-height="1017"
     inkscape:window-x="-8"
     inkscape:window-y="-8"
     inkscape:window-maximized="1" />
  <metadata
     id="metadata3712">
    <rdf:RDF>
      <cc:Work
         rdf:about="">
        <dc:format>image/svg+xml</dc:format>
        <dc:type
           rdf:resource="http://purl.org/dc/dcmitype/StillImage" />
        <dc:title></dc:title>
      </cc:Work>
    </rdf:RDF>
  </metadata>
  <g
     inkscape:label="Layer 1"
     inkscape:groupmode="layer"
     id="layer1">
    <path
       id="path3731"
       d="m 14.487069,166.06885 c -0.166172,-3.01865 -0.550138,-6.03649 -0.504159,-9.06478 0.04942,-3.25473 0.291686,-4.58656 0.672356,-7.88907 0.330193,-1.58765 0.556217,-3.20057 0.990577,-4.76293 2.409067,-8.66525 7.081391,-16.57768 12.324753,-23.8073 1.498595,-2.06628 3.122311,-4.03886 4.683466,-6.0583 6.55818,-7.72157 13.820683,-14.856379 21.626113,-21.315511 3.995618,-3.306448 5.695132,-4.448197 9.816177,-7.444801 7.103964,-4.836647 14.599626,-9.074367 22.193188,-13.088588 0,0 -4.130085,3.317859 -4.130085,3.317859 v 0 c -5.42467,2.843178 -7.62759,3.971605 -13.532818,7.978415 -4.129008,2.965164 -5.964192,4.189902 -9.96647,7.461197 -7.855937,6.421109 -15.169528,13.528409 -21.739611,21.260599 -1.556031,2.00664 -3.174886,3.96611 -4.668091,6.01994 -5.178851,7.12324 -9.7846,14.91785 -12.087476,23.48696 -0.413051,1.53699 -0.620626,3.12195 -0.930939,4.68292 -0.146252,1.36814 -0.338316,2.73216 -0.438756,4.10442 -0.307029,4.19481 0.04385,8.40092 0.645069,12.55346 0,0 -4.953294,2.56551 -4.953294,2.56551 z"
       inkscape:connector-curvature="0"
       style="stroke-width:0.26458332" />
    <path
       id="path3735"
       d="m 84.339802,76.730348 c -1.835121,4.241419 -3.750815,8.447405 -5.622163,12.67287 -3.299381,7.487031 -6.494317,15.021162 -9.480174,22.638852 -1.751407,4.77224 -3.453908,9.58473 -4.577596,14.55092 -0.627031,2.7712 -0.6999,3.61205 -1.111509,6.38604 -0.634934,5.11997 -0.426366,10.31739 1.052443,15.28149 0.290243,0.9743 0.668933,1.92002 1.003401,2.88003 1.40585,3.45335 3.364622,6.63404 5.783704,9.46732 1.089692,1.27627 1.92473,2.06757 3.099189,3.24197 2.641497,2.52767 5.680274,4.60445 8.96262,6.20988 0.674624,0.32997 1.368698,0.61859 2.053048,0.92789 0.697764,0.26477 1.395529,0.52953 2.093291,0.79429 0,0 -4.454787,2.99302 -4.454787,2.99302 v 0 c -0.703385,-0.27427 -1.406769,-0.54853 -2.110156,-0.8228 -4.079044,-1.88679 -7.925011,-4.09165 -11.133245,-7.29462 -1.217147,-1.25319 -1.947479,-1.95938 -3.080129,-3.32174 -2.418109,-2.90854 -4.39094,-6.14366 -5.814068,-9.6526 -0.342206,-0.97403 -0.729234,-1.93346 -1.026623,-2.92209 -1.510069,-5.02007 -1.760815,-10.28573 -1.134702,-15.47128 0.413636,-2.76186 0.501928,-3.69587 1.129445,-6.45313 1.138066,-5.00056 2.882829,-9.83708 4.632825,-14.64807 2.978602,-7.59809 6.155563,-15.115828 9.378156,-22.613386 1.788158,-4.157951 3.666175,-8.284888 5.266968,-12.519213 0,0 5.090062,-2.325643 5.090062,-2.325643 z"
       inkscape:connector-curvature="0"
       style="stroke-width:0.26458332" />
    <path
       id="path3737"
       d="m 32.82602,119.02666 c 4.990918,1.29384 10.066348,2.16559 15.161996,2.92005 8.585387,1.15689 17.196985,2.10578 25.82474,2.88132 6.014053,0.50417 12.046762,0.72517 18.075569,0.96903 0,0 -4.254416,3.06294 -4.254416,3.06294 v 0 c -5.992674,-0.2772 -11.989241,-0.5337 -17.965022,-1.07917 -8.650833,-0.81959 -17.291659,-1.75045 -25.911392,-2.85234 -5.200867,-0.73431 -10.366288,-1.63427 -15.506904,-2.71364 0,0 4.575429,-3.18819 4.575429,-3.18819 z"
       inkscape:connector-curvature="0"
       style="stroke-width:0.26458332" />
    <path
       id="path3747"
       d="m 90.439937,76.672286 c 1.869398,2.081596 3.43983,4.396512 5.031373,6.689777 2.33862,3.313891 4.4735,6.759044 6.60594,10.206583 1.39906,2.330937 2.7898,4.676571 3.82655,7.196804 0.50777,1.23435 1.00018,2.72076 1.43508,3.98109 1.38134,4.08133 2.1501,8.32146 2.68008,12.58616 0.39979,3.76758 0.52196,7.55796 0.46951,11.34428 -0.0186,3.78273 -0.52771,7.53181 -1.11208,11.261 -0.66449,3.88759 -1.66087,7.70601 -2.83782,11.46689 -0.95429,2.88421 -2.09648,5.69625 -3.49382,8.39328 -0.73771,1.26674 -1.52208,2.51071 -2.3975,3.68738 -0.44796,0.6348 -0.995532,1.15788 -1.594559,1.64292 -0.713999,0.50531 -1.252135,1.21726 -1.841757,1.85575 -0.623101,0.68922 -1.257339,1.36495 -1.921732,2.01451 0,0 -5.155832,2.12304 -5.155832,2.12304 v 0 c 0.672603,-0.63287 1.334384,-1.2727 1.921457,-1.98809 0.618154,-0.62446 1.148903,-1.31632 1.761612,-1.94176 0.65537,-0.39475 1.201451,-0.89752 1.688197,-1.48903 0.887003,-1.18283 1.742528,-2.38785 2.519543,-3.64837 1.455153,-2.66781 2.633601,-5.46707 3.619701,-8.34154 1.19196,-3.73512 2.20798,-7.52844 2.8764,-11.39544 0.5859,-3.70424 1.10289,-7.42782 1.13082,-11.18604 0.075,-3.76749 -0.0468,-7.54208 -0.4043,-11.29424 -0.50063,-4.23242 -1.24931,-8.44069 -2.62269,-12.48764 -0.43112,-1.25 -0.91412,-2.7105 -1.41858,-3.935 -1.02867,-2.49693 -2.410096,-4.822133 -3.790168,-7.135742 -2.124863,-3.440711 -4.256143,-6.87749 -6.619698,-10.162281 -1.597644,-2.256282 -3.167168,-4.556821 -5.131252,-6.517846 0,0 4.775525,-2.926445 4.775525,-2.926445 z"
       inkscape:connector-curvature="0"
       style="stroke-width:0.26458332" />
    <path
       id="path3753"
       d="m 96.038317,79.525407 c 2.857537,0.0063 5.641733,0.783717 8.386523,1.496644 4.59631,1.250297 9.19465,2.497381 13.81471,3.657606 3.82223,0.909849 7.58375,2.027764 11.28048,3.35526 2.00336,0.729766 3.73192,1.938208 5.46223,3.147227 1.13457,0.852876 2.16906,1.829437 3.2814,2.708246 0.74302,0.703559 1.56926,1.313526 2.12094,2.186395 0.49816,0.744513 0.65609,1.611643 0.76278,2.483368 0.0991,1.506137 -0.48186,2.847697 -1.1374,4.164317 -1.25915,2.26406 -3.06634,4.13839 -4.92052,5.91917 -3.32433,3.33213 -7.48936,5.42637 -11.54108,7.7392 -2.31363,1.12982 -4.75034,1.95421 -7.23534,2.60721 -2.28585,0.66597 -4.65452,0.93977 -7.00573,1.2633 -1.44507,0.20473 -2.90121,0.31428 -4.35925,0.36257 0,0 4.5189,-3.30748 4.5189,-3.30748 v 0 c 1.42736,-0.0531 2.85182,-0.16581 4.2669,-0.3644 2.33487,-0.32007 4.67931,-0.62251 6.94356,-1.30445 2.45559,-0.68258 4.86907,-1.5264 7.14062,-2.69489 -1.15287,0.68226 -2.29589,1.38145 -3.45861,2.04676 -0.4147,0.23729 0.81407,-0.50064 1.21383,-0.7623 1.58065,-1.0346 3.09715,-2.17045 4.44389,-3.5001 1.84232,-1.72674 3.64753,-3.53327 4.94073,-5.72375 0.63481,-1.21414 1.24762,-2.43779 1.21751,-3.84297 -0.0764,-0.7932 -0.18673,-1.583369 -0.64491,-2.259165 -0.50937,-0.818952 -1.3147,-1.382707 -2.00354,-2.042467 -1.07701,-0.898668 -2.11093,-1.849662 -3.23098,-2.696803 -1.66924,-1.199874 -3.37532,-2.339213 -5.31442,-3.068206 -3.64342,-1.350169 -7.35538,-2.485459 -11.13687,-3.3861 -4.62889,-1.17429 -9.24147,-2.412535 -13.860236,-3.625922 -2.78003,-0.678785 -5.60266,-1.39201 -8.488693,-1.257895 0,0 4.542576,-3.300375 4.542576,-3.300375 z"
       inkscape:connector-curvature="0"
       style="stroke-width:0.26458332" />
    <path
       id="path3757"
       d="m 113.79589,115.99065 c 1.55972,-0.40342 3.15029,-0.65931 4.73522,-0.93892 1.46972,-0.26573 2.96069,-0.31698 4.44978,-0.34955 1.79872,-0.093 3.55682,-0.005 5.30959,0.41155 2.20072,0.46662 4.25193,1.41374 6.28411,2.34916 1.78607,0.82097 3.429,1.8685 5.06694,2.94303 1.43285,0.84858 2.71084,1.89348 3.93363,3.01603 1.16527,0.96546 1.90644,2.24819 2.51004,3.61151 0.63098,1.46895 1.0312,3.01174 1.28066,4.58648 0.24479,1.74943 0.25698,3.51262 0.1539,5.27198 -0.20027,2.12493 -0.6853,4.21529 -1.19911,6.28351 -0.55392,1.964 -0.77885,3.98728 -0.9052,6.01673 -0.1745,2.41266 -0.0716,4.81505 0.1642,7.21772 0.31574,2.75882 1.30206,5.33238 2.54065,7.79329 1.39585,2.40129 3.1536,4.55996 5.02282,6.60389 1.24226,1.18223 2.51854,2.35379 4.15114,2.94359 0.62545,0.18683 1.27437,0.22522 1.92064,0.27178 0,0 -4.53852,3.23511 -4.53852,3.23511 v 0 c -0.68619,-0.0745 -1.37119,-0.14625 -2.02052,-0.40098 -1.64177,-0.72549 -2.95856,-1.93695 -4.21392,-3.20066 -1.87945,-2.0974 -3.66219,-4.2988 -5.07754,-6.74222 -1.28976,-2.54433 -2.2869,-5.10934 -2.65763,-7.96018 -0.2409,-2.42115 -0.39215,-4.84409 -0.2351,-7.27797 0.10843,-2.05999 0.30733,-4.12079 0.86673,-6.11481 0.52171,-2.03353 1.00098,-4.09134 1.22631,-6.18102 0.10385,-1.72226 0.12008,-3.44598 -0.11246,-5.16106 -0.22746,-1.52968 -0.61152,-3.02726 -1.22116,-4.45297 -0.56704,-1.299 -1.28407,-2.49752 -2.38931,-3.41496 -1.20122,-1.10099 -2.47214,-2.10506 -3.86897,-2.9508 -1.61253,-1.05943 -3.24225,-2.07735 -4.99931,-2.88805 -2.00693,-0.92148 -4.04503,-1.81543 -6.22458,-2.24269 -1.74225,-0.33192 -3.49215,-0.37101 -5.26258,-0.28276 -1.47287,0.0481 -2.94522,0.13995 -4.39652,0.41248 -1.58843,0.28188 -3.18643,0.54182 -4.73147,1.01776 0,0 4.43754,-3.426 4.43754,-3.426 z"
       inkscape:connector-curvature="0"
       style="stroke-width:0.26458332" />
  </g>
</svg>
