<?xml version="1.0" encoding="UTF-8"?>
<!-- Created with Inkscape (http://www.inkscape.org/) -->
<svg width="145.24mm" height="104.62mm" version="1.1" viewBox="0 0 145.24 104.62" xmlns="http://www.w3.org/2000/svg" xmlns:cc="http://creativecommons.org/ns#" xmlns:dc="http://purl.org/dc/elements/1.1/" xmlns:rdf="http://www.w3.org/1999/02/22-rdf-syntax-ns#">
 <metadata>
  <rdf:RDF>
   <cc:Work rdf:about="">
    <dc:format>image/svg+xml</dc:format>
    <dc:type rdf:resource="http://purl.org/dc/dcmitype/StillImage"/>
    <dc:title/>
   </cc:Work>
  </rdf:RDF>
 </metadata>
 <g transform="translate(-13.979 -72.638)" stroke-width=".26458">
  <path d="m14.487 166.07c-0.16617-3.0186-0.55014-6.0365-0.50416-9.0648 0.04942-3.2547 0.29169-4.5866 0.67236-7.8891 0.33019-1.5876 0.55622-3.2006 0.99058-4.7629 2.4091-8.6652 7.0814-16.578 12.325-23.807 1.4986-2.0663 3.1223-4.0389 4.6835-6.0583 6.5582-7.7216 13.821-14.856 21.626-21.316 3.9956-3.3064 5.6951-4.4482 9.8162-7.4448 7.104-4.8366 14.6-9.0744 22.193-13.089l-4.1301 3.3179c-5.4247 2.8432-7.6276 3.9716-13.533 7.9784-4.129 2.9652-5.9642 4.1899-9.9665 7.4612-7.8559 6.4211-15.17 13.528-21.74 21.261-1.556 2.0066-3.1749 3.9661-4.6681 6.0199-5.1789 7.1232-9.7846 14.918-12.087 23.487-0.41305 1.537-0.62063 3.122-0.93094 4.6829-0.14625 1.3681-0.33832 2.7322-0.43876 4.1044-0.30703 4.1948 0.04385 8.4009 0.64507 12.553l-4.9533 2.5655z"/>
  <path d="m84.34 76.73c-1.8351 4.2414-3.7508 8.4474-5.6222 12.673-3.2994 7.487-6.4943 15.021-9.4802 22.639-1.7514 4.7722-3.4539 9.5847-4.5776 14.551-0.62703 2.7712-0.6999 3.612-1.1115 6.386-0.63493 5.12-0.42637 10.317 1.0524 15.281 0.29024 0.9743 0.66893 1.92 1.0034 2.88 1.4058 3.4534 3.3646 6.634 5.7837 9.4673 1.0897 1.2763 1.9247 2.0676 3.0992 3.242 2.6415 2.5277 5.6803 4.6044 8.9626 6.2099 0.67462 0.32997 1.3687 0.61859 2.053 0.92789 0.69776 0.26477 1.3955 0.52953 2.0933 0.79429l-4.4548 2.993c-0.70338-0.27427-1.4068-0.54853-2.1102-0.8228-4.079-1.8868-7.925-4.0916-11.133-7.2946-1.2171-1.2532-1.9475-1.9594-3.0801-3.3217-2.4181-2.9085-4.3909-6.1437-5.8141-9.6526-0.34221-0.97403-0.72923-1.9335-1.0266-2.9221-1.5101-5.0201-1.7608-10.286-1.1347-15.471 0.41364-2.7619 0.50193-3.6959 1.1294-6.4531 1.1381-5.0006 2.8828-9.8371 4.6328-14.648 2.9786-7.5981 6.1556-15.116 9.3782-22.613 1.7882-4.158 3.6662-8.2849 5.267-12.519l5.0901-2.3256z"/>
  <path d="m32.826 119.03c4.9909 1.2938 10.066 2.1656 15.162 2.92 8.5854 1.1569 17.197 2.1058 25.825 2.8813 6.0141 0.50417 12.047 0.72517 18.076 0.96903l-4.2544 3.0629c-5.9927-0.2772-11.989-0.5337-17.965-1.0792-8.6508-0.81959-17.292-1.7504-25.911-2.8523-5.2009-0.73431-10.366-1.6343-15.507-2.7136l4.5754-3.1882z"/>
  <path d="m90.44 76.672c1.8694 2.0816 3.4398 4.3965 5.0314 6.6898 2.3386 3.3139 4.4735 6.759 6.6059 10.207 1.3991 2.3309 2.7898 4.6766 3.8266 7.1968 0.50777 1.2344 1.0002 2.7208 1.4351 3.9811 1.3813 4.0813 2.1501 8.3215 2.6801 12.586 0.39979 3.7676 0.52196 7.558 0.46951 11.344-0.0186 3.7827-0.52771 7.5318-1.1121 11.261-0.66449 3.8876-1.6609 7.706-2.8378 11.467-0.95429 2.8842-2.0965 5.6962-3.4938 8.3933-0.73771 1.2667-1.5221 2.5107-2.3975 3.6874-0.44796 0.6348-0.99553 1.1579-1.5946 1.6429-0.714 0.50531-1.2521 1.2173-1.8418 1.8558-0.6231 0.68922-1.2573 1.365-1.9217 2.0145l-5.1558 2.123c0.6726-0.63287 1.3344-1.2727 1.9215-1.9881 0.61815-0.62446 1.1489-1.3163 1.7616-1.9418 0.65537-0.39475 1.2015-0.89752 1.6882-1.489 0.887-1.1828 1.7425-2.3878 2.5195-3.6484 1.4552-2.6678 2.6336-5.4671 3.6197-8.3415 1.192-3.7351 2.208-7.5284 2.8764-11.395 0.5859-3.7042 1.1029-7.4278 1.1308-11.186 0.075-3.7675-0.0468-7.5421-0.4043-11.294-0.50063-4.2324-1.2493-8.4407-2.6227-12.488-0.43112-1.25-0.91412-2.7105-1.4186-3.935-1.0287-2.4969-2.4101-4.8221-3.7902-7.1357-2.1249-3.4407-4.2561-6.8775-6.6197-10.162-1.5976-2.2563-3.1672-4.5568-5.1313-6.5178l4.7755-2.9264z"/>
  <path d="m96.038 79.525c2.8575 0.0063 5.6417 0.78372 8.3865 1.4966 4.5963 1.2503 9.1946 2.4974 13.815 3.6576 3.8222 0.90985 7.5838 2.0278 11.28 3.3553 2.0034 0.72977 3.7319 1.9382 5.4622 3.1472 1.1346 0.85288 2.1691 1.8294 3.2814 2.7082 0.74302 0.70356 1.5693 1.3135 2.1209 2.1864 0.49816 0.74451 0.65609 1.6116 0.76278 2.4834 0.0991 1.5061-0.48186 2.8477-1.1374 4.1643-1.2592 2.2641-3.0663 4.1384-4.9205 5.9192-3.3243 3.3321-7.4894 5.4264-11.541 7.7392-2.3136 1.1298-4.7503 1.9542-7.2353 2.6072-2.2858 0.66597-4.6545 0.93977-7.0057 1.2633-1.4451 0.20473-2.9012 0.31428-4.3592 0.36257l4.5189-3.3075c1.4274-0.0531 2.8518-0.16581 4.2669-0.3644 2.3349-0.32007 4.6793-0.62251 6.9436-1.3044 2.4556-0.68258 4.8691-1.5264 7.1406-2.6949-1.1529 0.68226-2.2959 1.3814-3.4586 2.0468-0.4147 0.23729 0.81407-0.50064 1.2138-0.7623 1.5806-1.0346 3.0972-2.1704 4.4439-3.5001 1.8423-1.7267 3.6475-3.5333 4.9407-5.7238 0.63481-1.2141 1.2476-2.4378 1.2175-3.843-0.0764-0.7932-0.18673-1.5834-0.64491-2.2592-0.50937-0.81895-1.3147-1.3827-2.0035-2.0425-1.077-0.89867-2.1109-1.8497-3.231-2.6968-1.6692-1.1999-3.3753-2.3392-5.3144-3.0682-3.6434-1.3502-7.3554-2.4855-11.137-3.3861-4.6289-1.1743-9.2415-2.4125-13.86-3.6259-2.78-0.67878-5.6027-1.392-8.4887-1.2579l4.5426-3.3004z"/>
  <path d="m113.8 115.99c1.5597-0.40342 3.1503-0.65931 4.7352-0.93892 1.4697-0.26573 2.9607-0.31698 4.4498-0.34955 1.7987-0.093 3.5568-5e-3 5.3096 0.41155 2.2007 0.46662 4.2519 1.4137 6.2841 2.3492 1.7861 0.82097 3.429 1.8685 5.0669 2.943 1.4328 0.84858 2.7108 1.8935 3.9336 3.016 1.1653 0.96546 1.9064 2.2482 2.51 3.6115 0.63098 1.469 1.0312 3.0117 1.2807 4.5865 0.24479 1.7494 0.25698 3.5126 0.1539 5.272-0.20027 2.1249-0.6853 4.2153-1.1991 6.2835-0.55392 1.964-0.77885 3.9873-0.9052 6.0167-0.1745 2.4127-0.0716 4.815 0.1642 7.2177 0.31574 2.7588 1.3021 5.3324 2.5406 7.7933 1.3958 2.4013 3.1536 4.56 5.0228 6.6039 1.2423 1.1822 2.5185 2.3538 4.1511 2.9436 0.62545 0.18683 1.2744 0.22522 1.9206 0.27178l-4.5385 3.2351c-0.68619-0.0745-1.3712-0.14625-2.0205-0.40098-1.6418-0.72549-2.9586-1.937-4.2139-3.2007-1.8794-2.0974-3.6622-4.2988-5.0775-6.7422-1.2898-2.5443-2.2869-5.1093-2.6576-7.9602-0.2409-2.4212-0.39215-4.8441-0.2351-7.278 0.10843-2.06 0.30733-4.1208 0.86673-6.1148 0.52171-2.0335 1.001-4.0913 1.2263-6.181 0.10385-1.7223 0.12008-3.446-0.11246-5.1611-0.22746-1.5297-0.61152-3.0273-1.2212-4.453-0.56704-1.299-1.2841-2.4975-2.3893-3.415-1.2012-1.101-2.4721-2.1051-3.869-2.9508-1.6125-1.0594-3.2422-2.0774-4.9993-2.888-2.0069-0.92148-4.045-1.8154-6.2246-2.2427-1.7422-0.33192-3.4922-0.37101-5.2626-0.28276-1.4729 0.0481-2.9452 0.13995-4.3965 0.41248-1.5884 0.28188-3.1864 0.54182-4.7315 1.0178l4.4375-3.426z"/>
 </g>
</svg>
